REM GENRE Breakbeat
REM DATE 2011
REM COMMENT "DCue v1.4dev"
PERFORMER "Various"
TITLE "Hardcore Underground 5"
FILE "r3151795.wav" WAVE
	TRACK 01 AUDIO
		TITLE "NanEater (HU Intro Mix Feat. Dark Angel)"
		PERFORMER "A.B & Solution"
		INDEX 01 00:00:00
	TRACK 02 AUDIO
		TITLE "Genre This!"
		PERFORMER "A.B & SynthWulf"
		INDEX 01 03:52:00
	TRACK 03 AUDIO
		TITLE "Weekend"
		PERFORMER "Haywire"
		INDEX 01 06:19:00
	TRACK 04 AUDIO
		TITLE "Future Skool"
		PERFORMER "Pinnacle & Ben Av-It"
		INDEX 01 08:46:00
	TRACK 05 AUDIO
		TITLE "Stay With Me (Greg Peaks Remix)"
		PERFORMER "A.B"
		INDEX 01 11:04:00
	TRACK 06 AUDIO
		TITLE "Show Me Love (Deeper Territory Remix)"
		PERFORMER "Darts Feat. Kelly C"
		INDEX 01 13:52:00
	TRACK 07 AUDIO
		TITLE "The Prophet"
		PERFORMER "Endemic"
		INDEX 01 15:37:00
	TRACK 08 AUDIO
		TITLE "State Of Life"
		PERFORMER "Kevin Energy & Rik Arkitech Feat. Rhona"
		INDEX 01 17:06:00
	TRACK 09 AUDIO
		TITLE "Air"
		PERFORMER "Douglas Feat. Dionne"
		INDEX 01 21:39:00
	TRACK 10 AUDIO
		TITLE "Without You (Cube::Hard Remix)"
		PERFORMER "X-Cyte Feat. Freda"
		INDEX 01 24:57:00
	TRACK 11 AUDIO
		TITLE "Beyond Us (Douglas Remix)"
		PERFORMER "Rampant, Obie & Darwin"
		INDEX 01 28:09:00
	TRACK 12 AUDIO
		TITLE "Codex"
		PERFORMER "Cube::Hard & Douglas"
		INDEX 01 31:02:00
	TRACK 13 AUDIO
		TITLE "Sin 4 Me (A.B's Trouse Remix)"
		PERFORMER "Kevin Energy & A.B"
		INDEX 01 34:24:00
	TRACK 14 AUDIO
		TITLE "Warlock (Cube::Hard Remix)"
		PERFORMER "Lost Soul"
		INDEX 01 38:32:00
	TRACK 15 AUDIO
		TITLE "Investatron 3000"
		PERFORMER "Endemic"
		INDEX 01 41:01:00
	TRACK 16 AUDIO
		TITLE "Beaker Face"
		PERFORMER "Firefarm & Kevin Energy"
		INDEX 01 43:54:00
	TRACK 17 AUDIO
		TITLE "Domination"
		PERFORMER "Transcend"
		INDEX 01 47:22:00
	TRACK 18 AUDIO
		TITLE "Disorder"
		PERFORMER "Douglas & Remane"
		INDEX 01 50:11:00
	TRACK 19 AUDIO
		TITLE "Zero-G Fire"
		PERFORMER "Transcend"
		INDEX 01 54:11:00
	TRACK 20 AUDIO
		TITLE "Solas An Lae (Douglas HU5 Remix)"
		PERFORMER "Andy Dee"
		INDEX 01 56:43:00
	TRACK 21 AUDIO
		TITLE "Escapia"
		PERFORMER "A.B"
		INDEX 01 61:28:00
	TRACK 22 AUDIO
		TITLE "False Religion"
		PERFORMER "Rik Arkitech & Douglas"
		INDEX 01 63:21:00
	TRACK 23 AUDIO
		TITLE "Reform Your Freeform"
		PERFORMER "Kevin Energy & A.B"
		INDEX 01 66:34:00
	TRACK 24 AUDIO
		TITLE "Fin"
		PERFORMER "A.B & Douglas"
		INDEX 01 70:06:00
